<svg width="22" height="22" viewBox="0 0 22 22" fill="none" xmlns="http://www.w3.org/2000/svg">
<path d="M17.1873 0H2.49219C1.11803 0 0 1.11803 0 2.49219V18.3905C0 19.1013 0.578232 19.6795 1.28906 19.6795H6.93224C7.16957 19.6795 7.36192 19.4872 7.36192 19.2498C7.36192 19.0125 7.16957 18.8201 6.93224 18.8201H1.28906C1.05206 18.8201 0.859375 18.6275 0.859375 18.3905V2.49219C0.859375 1.59186 1.59186 0.859375 2.49219 0.859375H15.3069C14.9264 1.29712 14.6951 1.86797 14.6951 2.49219V16.3395C14.6951 16.736 14.3727 17.0584 13.9763 17.0584C13.6664 17.0584 13.3923 16.8609 13.2941 16.567L12.6466 14.624C12.4638 14.0755 11.9524 13.707 11.3743 13.707C10.6348 13.707 10.0332 14.3086 10.0332 15.048V15.3826H7.80605C7.56871 15.3826 7.37636 15.5752 7.37636 15.8123C7.37636 16.0497 7.56871 16.242 7.80605 16.242H10.0332V18.3797C10.0332 19.0142 10.1569 19.6329 10.401 20.2183L11.0331 21.7355C11.1019 21.9005 11.2615 22 11.4299 22C11.4849 22 11.541 21.9894 11.5948 21.9669C11.8141 21.8756 11.9176 21.624 11.8263 21.405L11.1942 19.8878C10.9941 19.4076 10.8926 18.9002 10.8926 18.3799V15.0481C10.8926 14.7824 11.1086 14.5664 11.3743 14.5664C11.5819 14.5664 11.7657 14.6987 11.8313 14.8957L12.4789 16.8387C12.6941 17.4841 13.2958 17.9178 13.9763 17.9178C14.8465 17.9178 15.5545 17.2098 15.5545 16.3395V8.97258L16.1287 9.54561C17.1533 10.5681 17.7174 11.9285 17.7174 13.3759V17.9435C17.7174 19.1266 17.4493 20.317 16.9424 21.386C16.8407 21.6004 16.9322 21.8567 17.1465 21.9584C17.3609 22.0601 17.6172 21.9688 17.7189 21.7543C18.28 20.571 18.5768 19.2532 18.5768 17.9435V13.3759C18.5768 11.6986 17.923 10.1223 16.7358 8.93733L15.5545 7.75821V7.34766H18.3905C19.1013 7.34766 19.6795 6.76942 19.6795 6.05859V2.49219C19.6795 1.11803 18.5617 0 17.1873 0V0ZM18.8201 6.05859C18.8201 6.29543 18.6275 6.48828 18.3905 6.48828H15.5545V2.49219C15.5545 1.59186 16.287 0.859375 17.1873 0.859375C18.0877 0.859375 18.8201 1.59186 18.8201 2.49219V6.05859Z" fill="#888888"/>
<path d="M8.80859 18.8203C8.69547 18.8203 8.58469 18.8663 8.50479 18.9462C8.4249 19.0263 8.37891 19.137 8.37891 19.25C8.37891 19.3631 8.4249 19.4739 8.50479 19.5538C8.58469 19.6337 8.69547 19.6797 8.80859 19.6797C8.92155 19.6797 9.03233 19.6337 9.1124 19.5538C9.19229 19.4739 9.23828 19.3631 9.23828 19.25C9.23828 19.137 9.19229 19.0263 9.1124 18.9462C9.03233 18.8663 8.92155 18.8203 8.80859 18.8203Z" fill="#888888"/>
<path d="M5.91504 3.17969C5.91504 2.70586 5.5295 2.32031 5.05566 2.32031H3.16504C2.69104 2.32031 2.30566 2.70586 2.30566 3.17969V5.07031C2.30566 5.54414 2.69104 5.92969 3.16504 5.92969H5.05566C5.5295 5.92969 5.91504 5.54414 5.91504 5.07031V3.17969ZM5.05566 5.07031H3.16504V3.17969H5.05566L5.05617 5.07031C5.05617 5.07031 5.056 5.07031 5.05566 5.07031Z" fill="#888888"/>
<path d="M5.91504 8.33594C5.91504 7.86211 5.5295 7.47656 5.05566 7.47656H3.16504C2.69104 7.47656 2.30566 7.86211 2.30566 8.33594V10.2266C2.30566 10.7004 2.69104 11.0859 3.16504 11.0859H5.05566C5.5295 11.0859 5.91504 10.7004 5.91504 10.2266V8.33594ZM5.05566 10.2266H3.16504V8.33594H5.05566L5.05617 10.2266C5.05617 10.2266 5.056 10.2266 5.05566 10.2266Z" fill="#888888"/>
<path d="M5.05566 12.6328H3.16504C2.69104 12.6328 2.30566 13.0182 2.30566 13.4922V15.3826C2.30566 15.8566 2.69104 16.242 3.16504 16.242H5.05566C5.5295 16.242 5.91504 15.8566 5.91504 15.3826V13.4922C5.91504 13.0182 5.5295 12.6328 5.05566 12.6328ZM5.05566 15.3826H3.16504V13.4922H5.05566L5.05617 15.3826C5.05617 15.3826 5.056 15.3826 5.05566 15.3826Z" fill="#888888"/>
<path d="M12.7327 5.92969C12.97 5.92969 13.1624 5.73734 13.1624 5.5C13.1624 5.26266 12.97 5.07031 12.7327 5.07031H9.77051C9.53317 5.07031 9.34082 5.26266 9.34082 5.5C9.34082 5.73734 9.53317 5.92969 9.77051 5.92969H12.7327Z" fill="#888888"/>
<path d="M7.80566 5.92969C7.91879 5.92969 8.02957 5.8837 8.10947 5.8038C8.18936 5.72391 8.23535 5.61296 8.23535 5.5C8.23535 5.38704 8.18936 5.27609 8.10947 5.1962C8.02957 5.1163 7.91879 5.07031 7.80566 5.07031C7.6922 5.07031 7.58176 5.1163 7.50186 5.1962C7.42163 5.27609 7.37598 5.38704 7.37598 5.5C7.37598 5.61296 7.42163 5.72391 7.50186 5.8038C7.58176 5.8837 7.6922 5.92969 7.80566 5.92969Z" fill="#888888"/>
<path d="M7.80566 11.0859H12.7328C12.9701 11.0859 13.1625 10.8936 13.1625 10.6562C13.1625 10.4189 12.9701 10.2266 12.7328 10.2266H7.80566C7.5685 10.2266 7.37598 10.4189 7.37598 10.6562C7.37598 10.8936 7.5685 11.0859 7.80566 11.0859Z" fill="#888888"/>
</svg>
