<svg width="22" height="22" viewBox="0 0 22 22" fill="none" xmlns="http://www.w3.org/2000/svg">
<path d="M11.4297 10.822V7.13281C11.4297 6.8955 11.2373 6.70312 11 6.70312C10.7627 6.70312 10.5703 6.8955 10.5703 7.13281V11C10.5703 11.114 10.6156 11.2233 10.6962 11.3038L13.4294 14.0371C13.5972 14.2049 13.8693 14.2049 14.0371 14.0371C14.2049 13.8693 14.2049 13.5972 14.0371 13.4294L11.4297 10.822Z" fill="#888888"/>
<path d="M11 2.57812C6.35615 2.57812 2.57812 6.35615 2.57812 11C2.57812 15.6438 6.35615 19.4219 11 19.4219C15.6438 19.4219 19.4219 15.6438 19.4219 11C19.4219 6.35615 15.6438 2.57812 11 2.57812ZM17.7031 11.4293L18.55 11.4297C18.4508 13.1918 17.7456 14.7944 16.6399 16.0322L16.0334 15.4257C15.8657 15.2579 15.5936 15.2579 15.4257 15.4257C15.2579 15.5935 15.2579 15.8656 15.4257 16.0334L16.0322 16.6399C14.7944 17.7456 13.1918 18.4508 11.4297 18.55V17.7031C11.4297 17.4658 11.2373 17.2734 11 17.2734C10.7627 17.2734 10.5703 17.4658 10.5703 17.7031V18.55C8.80821 18.4508 7.20564 17.7456 5.96776 16.6399L6.57426 16.0334C6.74205 15.8657 6.74205 15.5936 6.57426 15.4257C6.40647 15.2579 6.13439 15.2579 5.96655 15.4257L5.36005 16.0322C4.25438 14.7944 3.54918 13.1918 3.44996 11.4297H4.29688C4.53419 11.4297 4.72656 11.2373 4.72656 11C4.72656 10.7627 4.53419 10.5703 4.29688 10.5703H3.44996C3.54918 8.80821 4.25438 7.20564 5.36005 5.96776L5.96655 6.57426C6.13435 6.74205 6.40643 6.74205 6.57426 6.57426C6.74205 6.40647 6.74205 6.13439 6.57426 5.96655L5.96776 5.36005C7.20564 4.25438 8.80821 3.54918 10.5703 3.44996V4.29688C10.5703 4.53419 10.7627 4.72656 11 4.72656C11.2373 4.72656 11.4297 4.53419 11.4297 4.29688V3.44996C13.1918 3.54918 14.7944 4.25438 16.0322 5.36005L15.4257 5.96655C15.2579 6.13435 15.2579 6.40643 15.4257 6.57426C15.5935 6.74205 15.8656 6.74205 16.0334 6.57426L16.6399 5.96776C17.7456 7.20564 18.4509 8.80821 18.55 10.5703H17.7031C17.4658 10.5703 17.2734 10.7627 17.2734 11C17.2734 11.2373 17.4658 11.4293 17.7031 11.4293Z" fill="#888888"/>
<path d="M18.4766 18.9062C18.7139 18.9062 18.9062 18.7139 18.9062 18.4766C18.9062 18.2393 18.7139 18.0469 18.4766 18.0469C18.2393 18.0469 18.0469 18.2393 18.0469 18.4766C18.0469 18.7139 18.2393 18.9062 18.4766 18.9062Z" fill="#888888"/>
<path d="M11 22C13.2414 22 15.3973 21.3314 17.2344 20.0665C17.4298 19.932 17.4792 19.6644 17.3446 19.4689C17.21 19.2735 16.9426 19.2242 16.747 19.3587C15.0539 20.5245 13.0666 21.1406 11 21.1406C5.40843 21.1406 0.859375 16.5916 0.859375 11C0.859375 5.40843 5.40843 0.859375 11 0.859375C16.5916 0.859375 21.1406 5.40843 21.1406 11C21.1406 13.0665 20.5245 15.0538 19.3587 16.747C19.2241 16.9425 19.2735 17.21 19.4689 17.3446C19.6643 17.4792 19.9319 17.4298 20.0665 17.2344C21.3314 15.3972 22 13.2414 22 11C22 4.9164 17.0851 0 11 0C4.9164 0 0 4.91494 0 11C0 17.0836 4.91494 22 11 22Z" fill="#888888"/>
</svg>
