<svg width="22" height="22" viewBox="0 0 22 22" fill="none" xmlns="http://www.w3.org/2000/svg">
<path d="M17.6654 0H5.05777H2.41699C2.17972 0 1.9873 0.192414 1.9873 0.429688V21.5703C1.9873 21.8076 2.17972 22 2.41699 22H5.05777H17.6654C18.9591 22 20.0117 20.9475 20.0117 19.6537V2.34627C20.0117 1.05252 18.9591 0 17.6654 0ZM19.1523 19.6537C19.1523 20.4736 18.4853 21.1406 17.6654 21.1406H5.48745V19.3934C5.48745 19.1561 5.29504 18.9637 5.05777 18.9637C4.82049 18.9637 4.62808 19.1561 4.62808 19.3934V21.1406H2.84668V0.859375H4.62808V15.9559C4.62808 16.1932 4.82049 16.3856 5.05777 16.3856C5.29504 16.3856 5.48745 16.1932 5.48745 15.9559V0.859375H17.6654C18.4853 0.859375 19.1523 1.52638 19.1523 2.34627V19.6537Z" fill="#888888"/>
<path d="M14.9535 4.20252C14.7706 4.20252 14.5908 4.22263 14.4155 4.2625C13.986 3.53732 13.1928 3.07227 12.3331 3.07227C11.4698 3.07227 10.6758 3.53934 10.2473 4.26796C10.0647 4.22443 9.87689 4.20252 9.68563 4.20252C8.35283 4.20252 7.26855 5.28679 7.26855 6.61959C7.26855 7.70206 7.99056 8.63968 9.00002 8.93793V11.8588C9.00002 12.0961 9.19244 12.2885 9.42971 12.2885H15.211C15.4483 12.2885 15.6407 12.0961 15.6407 11.8588V8.93746C16.6493 8.63861 17.3707 7.7012 17.3707 6.61964C17.3706 5.28679 16.2863 4.20252 14.9535 4.20252ZM15.1559 8.16428C14.9417 8.19199 14.7813 8.37439 14.7813 8.5904V11.4291H9.85944V8.59057C9.85944 8.37444 9.69891 8.19195 9.4845 8.16436C8.71114 8.06502 8.12797 7.4009 8.12797 6.61955C8.12797 5.76065 8.82677 5.06185 9.68568 5.06185C9.89988 5.06185 10.1069 5.1043 10.3009 5.18805C10.409 5.23458 10.5314 5.23484 10.6397 5.18873C10.7479 5.14259 10.8325 5.05403 10.8737 4.94381C11.0998 4.33843 11.6863 3.93164 12.3331 3.93164C12.9763 3.93164 13.5616 4.33533 13.7897 4.93616C13.8309 5.04492 13.9145 5.13227 14.0214 5.17834C14.1282 5.22431 14.2492 5.22513 14.3566 5.18036C14.5454 5.10177 14.7462 5.06189 14.9536 5.06189C15.8125 5.06189 16.5113 5.76069 16.5113 6.61959C16.5113 7.40029 15.9286 8.06433 15.1559 8.16428Z" fill="#888888"/>
<path d="M15.29 16.6748H9.27441C9.03714 16.6748 8.84473 16.8672 8.84473 17.1045C8.84473 17.3418 9.03714 17.5342 9.27441 17.5342H15.29C15.5273 17.5342 15.7197 17.3418 15.7197 17.1045C15.7197 16.8672 15.5274 16.6748 15.29 16.6748Z" fill="#888888"/>
<path d="M15.29 18.3936H9.27441C9.03714 18.3936 8.84473 18.586 8.84473 18.8232C8.84473 19.0605 9.03714 19.2529 9.27441 19.2529H15.29C15.5273 19.2529 15.7197 19.0605 15.7197 18.8232C15.7197 18.586 15.5274 18.3936 15.29 18.3936Z" fill="#888888"/>
<path d="M15.2908 14.9561H14.5254C14.2881 14.9561 14.0957 15.1485 14.0957 15.3857C14.0957 15.623 14.2881 15.8154 14.5254 15.8154H15.2908C15.5281 15.8154 15.7205 15.623 15.7205 15.3857C15.7205 15.1485 15.5281 14.9561 15.2908 14.9561Z" fill="#888888"/>
<path d="M11.0871 14.9561H9.27441C9.03714 14.9561 8.84473 15.1485 8.84473 15.3857C8.84473 15.623 9.03714 15.8154 9.27441 15.8154H11.0871C11.3244 15.8154 11.5168 15.623 11.5168 15.3857C11.5168 15.1485 11.3244 14.9561 11.0871 14.9561Z" fill="#888888"/>
<path d="M13.2272 15.3139C13.2216 15.2864 13.2134 15.2593 13.2027 15.2331C13.192 15.2073 13.1786 15.1824 13.1632 15.1592C13.1473 15.1356 13.1296 15.1137 13.1095 15.0939C13.0897 15.0741 13.0678 15.056 13.0441 15.0402C13.0209 15.0247 12.996 15.0113 12.9702 15.0006C12.944 14.9899 12.9169 14.9817 12.8898 14.9762C12.8344 14.965 12.7773 14.965 12.7218 14.9762C12.6943 14.9817 12.6673 14.9899 12.6415 15.0006C12.6153 15.0113 12.5904 15.0247 12.5672 15.0402C12.5436 15.056 12.5216 15.0741 12.5019 15.0939C12.4821 15.1137 12.464 15.1356 12.4486 15.1592C12.4331 15.1824 12.4198 15.2073 12.4091 15.2331C12.3983 15.2593 12.3902 15.2864 12.3846 15.3139C12.379 15.3414 12.376 15.3698 12.376 15.3977C12.376 15.4256 12.379 15.454 12.3846 15.4815C12.3902 15.5089 12.3983 15.536 12.4091 15.5618C12.4198 15.588 12.4331 15.6129 12.4486 15.6361C12.464 15.6598 12.4821 15.6817 12.5019 15.7015C12.5216 15.7212 12.5436 15.7393 12.5672 15.7547C12.5904 15.7702 12.6153 15.7835 12.6415 15.7943C12.6673 15.805 12.6943 15.8131 12.7218 15.8187C12.7494 15.8243 12.7777 15.8273 12.8056 15.8273C12.834 15.8273 12.862 15.8243 12.8898 15.8187C12.9169 15.8131 12.944 15.805 12.9702 15.7943C12.996 15.7835 13.0209 15.7702 13.0441 15.7547C13.0678 15.7393 13.0897 15.7212 13.1095 15.7015C13.1296 15.6817 13.1473 15.6598 13.1632 15.6361C13.1786 15.6129 13.192 15.588 13.2027 15.5618C13.2134 15.536 13.2216 15.509 13.2272 15.4815C13.2328 15.454 13.2353 15.4256 13.2353 15.3977C13.2353 15.3698 13.2327 15.3414 13.2272 15.3139Z" fill="#888888"/>
<path d="M5.47133 17.5898C5.4657 17.5623 5.45754 17.5353 5.44679 17.5095C5.43605 17.4833 5.42269 17.4583 5.40722 17.4351C5.39136 17.4115 5.37375 17.3896 5.35398 17.3698C5.33374 17.3501 5.31187 17.332 5.28863 17.3165C5.26499 17.3011 5.24007 17.2878 5.21433 17.277C5.18851 17.2663 5.16148 17.2581 5.13398 17.2525C5.07855 17.2413 5.0214 17.2413 4.96597 17.2525C4.93847 17.2581 4.91136 17.2663 4.88562 17.277C4.85988 17.2878 4.83492 17.3011 4.81133 17.3165C4.78812 17.332 4.76617 17.3501 4.74597 17.3698C4.72621 17.3896 4.70816 17.4115 4.69269 17.4351C4.67727 17.4583 4.6639 17.4833 4.65316 17.5095C4.64242 17.5353 4.6343 17.5623 4.62871 17.5898C4.62308 17.6173 4.62012 17.6457 4.62012 17.6736C4.62012 17.7866 4.66605 17.8974 4.74602 17.9774C4.76621 17.9971 4.78812 18.0152 4.81137 18.0306C4.835 18.0461 4.85993 18.0594 4.88566 18.0702C4.9114 18.0809 4.93852 18.0895 4.96602 18.0946C4.99352 18.1002 5.02188 18.1032 5.0498 18.1032C5.07816 18.1032 5.10609 18.1002 5.13402 18.0946C5.16152 18.0895 5.18859 18.0809 5.21438 18.0702C5.24016 18.0594 5.26508 18.0461 5.28867 18.0306C5.31187 18.0152 5.33379 17.9971 5.35402 17.9774C5.4339 17.8974 5.47992 17.7866 5.47992 17.6736C5.47992 17.6457 5.47691 17.6173 5.47133 17.5898Z" fill="#888888"/>
</svg>
