<svg width="22" height="22" viewBox="0 0 22 22" fill="none" xmlns="http://www.w3.org/2000/svg">
<g clip-path="url(#clip0_2335_10313)">
<path d="M21.3171 10.2093C21.5213 9.64222 21.5432 9.09171 21.3799 8.56736C21.196 7.97723 20.8108 7.5438 20.4838 7.2639C20.8417 6.89931 21.0298 6.39288 20.9933 5.88241C21.5949 5.59014 22.0001 4.96963 22.0001 4.27921C22.0001 3.58883 21.5949 2.96832 20.9933 2.676C21.041 2.00882 20.7062 1.34779 20.1083 1.00258C19.5103 0.657414 18.7704 0.698063 18.2165 1.07279C17.6627 0.69802 16.9227 0.657414 16.3248 1.00258C15.7269 1.34779 15.3922 2.00891 15.4398 2.676C15.385 2.70264 15.3325 2.73285 15.2812 2.76469C14.1611 1.03696 12.9349 0.806902 12.2726 0.833543C11.3093 0.872473 10.3944 1.48761 9.99601 2.3643C9.73059 2.94842 9.29455 3.193 8.97546 3.29531C8.48188 3.45361 7.91727 3.39233 7.46533 3.13143C6.97381 2.84766 6.38995 2.54967 5.78559 2.49098C5.19958 2.43409 4.67463 2.61052 4.22097 3.01425C4.05636 2.97627 3.91735 3.00321 3.82862 3.03337C3.35966 3.19304 3.08187 3.82382 2.86109 4.71848C2.68634 4.03987 2.5115 3.48278 2.36902 3.06912C2.30319 2.878 2.25541 2.72004 2.21708 2.59311C2.11498 2.25521 2.03433 1.98829 1.73944 1.90514C1.44489 1.82208 1.23743 2.00663 0.975024 2.2403C0.94327 2.26857 0.908938 2.29912 0.871727 2.33195L0.145684 2.9718C0.00839914 3.09275 -0.0372767 3.2874 0.031946 3.45683C0.599692 4.84554 1.25892 8.68939 1.483 10.0619H1.27804C0.573352 10.0619 2.02208e-05 10.6351 2.02208e-05 11.3399V13.0808C2.02208e-05 13.4061 0.122395 13.7032 0.323274 13.9291C0.122352 14.1549 2.02208e-05 14.4521 2.02208e-05 14.7774V16.5183C2.02208e-05 16.8436 0.122395 17.1408 0.323274 17.3666C0.122352 17.5925 2.02208e-05 17.8896 2.02208e-05 18.2149V19.9558C2.02208e-05 20.6604 0.573352 21.2337 1.27804 21.2337H20.722C21.4266 21.2337 22 20.6604 22 19.9558V18.2149C22 17.8896 21.8776 17.5924 21.6767 17.3666C21.8776 17.1407 22 16.8436 22 16.5183V14.7774C22 14.4521 21.8776 14.1549 21.6767 13.929C21.8776 13.7032 22 13.4061 22 13.0807V11.3398C22 10.8499 21.7228 10.4237 21.3171 10.2093ZM20.5593 8.82298C20.6778 9.2033 20.6412 9.61919 20.4519 10.0619H18.2224C18.2391 10.0331 18.2558 10.0045 18.2724 9.97562C18.779 9.09828 19.0714 8.39437 19.1716 7.79336C19.1872 7.79375 19.2028 7.79431 19.2184 7.79431C19.3751 7.79431 19.5312 7.77347 19.6827 7.73252C19.9202 7.89279 20.3859 8.26615 20.5593 8.82298ZM16.0192 3.37884C16.1381 3.3534 16.2405 3.27877 16.3013 3.17354C16.362 3.06826 16.3755 2.94219 16.3381 2.82656C16.2056 2.41677 16.3807 1.96272 16.7544 1.74693C17.1282 1.53123 17.609 1.60651 17.8976 1.92607C17.979 2.01626 18.0949 2.06773 18.2165 2.06773C18.338 2.06773 18.4539 2.01626 18.5354 1.92607C18.824 1.60646 19.3049 1.5311 19.6785 1.74689C20.0523 1.96268 20.2274 2.41673 20.095 2.82652C20.0576 2.94215 20.0709 3.06822 20.1317 3.17349C20.1925 3.27877 20.295 3.35336 20.4138 3.3788C20.8349 3.46899 21.1406 3.84767 21.1406 4.27925C21.1406 4.71083 20.8349 5.08947 20.4138 5.17966C20.295 5.2051 20.1925 5.27969 20.1317 5.38496C20.0709 5.49024 20.0575 5.61631 20.095 5.73198C20.2274 6.14177 20.0522 6.59582 19.6785 6.81166C19.5247 6.90052 19.3501 6.94168 19.176 6.93364C19.0858 6.43826 18.8301 6.0597 18.5175 5.76133C18.7346 5.49539 19.029 5.22993 19.3051 5.11456C19.524 5.02308 19.6274 4.77137 19.5358 4.55245C19.4444 4.33352 19.1927 4.23018 18.9737 4.32166C18.5357 4.50475 18.1232 4.87583 17.8271 5.24742C17.7846 5.22168 17.7424 5.19676 17.7007 5.1727C17.6575 5.14773 17.6149 5.12397 17.5727 5.10094C17.7465 4.65862 17.8617 4.11571 17.8012 3.64469C17.771 3.40926 17.5555 3.24284 17.3203 3.27322C17.0849 3.30347 16.9186 3.51879 16.9489 3.75413C16.9871 4.05139 16.9041 4.43991 16.7819 4.76119C16.5481 4.69227 16.3266 4.65849 16.1112 4.65849C15.879 4.65849 15.6555 4.6963 15.4371 4.77399C15.3437 4.62755 15.2924 4.45632 15.2924 4.27929C15.2924 3.84776 15.5981 3.46903 16.0192 3.37884ZM15.4619 6.84152C15.6104 6.84152 15.7548 6.76443 15.8344 6.62659C15.9531 6.42107 15.8826 6.15827 15.6771 6.03964L15.3044 5.82445C15.3769 5.76846 15.4465 5.72171 15.5128 5.68373C15.5243 5.67818 15.5355 5.67191 15.5465 5.66529C15.7653 5.54734 15.9509 5.51787 16.1111 5.51787C16.4308 5.51787 16.7994 5.64467 17.271 5.91692C17.9538 6.31116 18.273 6.67536 18.3383 7.13482C18.3906 7.50264 18.2858 7.98247 18.0208 8.58734L17.3626 8.20732C17.157 8.08856 16.8943 8.15907 16.7757 8.36459C16.657 8.57011 16.7274 8.83291 16.9329 8.95154L17.6352 9.35695C17.6007 9.41896 17.5652 9.48182 17.5282 9.54584C17.4276 9.72008 17.3262 9.89286 17.2255 10.0617H12.6555C12.828 9.69374 13.0182 9.31145 13.2241 8.91747L13.7099 9.19788C13.7776 9.23694 13.8514 9.2555 13.9243 9.2555C14.0728 9.2555 14.2173 9.17842 14.2968 9.04053C14.4155 8.83501 14.3451 8.57221 14.1396 8.45358L13.6313 8.16019C13.7499 7.94599 13.8726 7.72882 13.9997 7.50865C14.2517 7.07209 14.4808 6.72997 14.6897 6.46185L15.2475 6.78386C15.3151 6.82296 15.389 6.84152 15.4619 6.84152ZM6.30998 9.15951C6.30998 7.29557 7.82643 5.77916 9.69038 5.77916C11.0611 5.77916 12.2928 6.61005 12.8131 7.86482C12.7686 7.94599 12.7246 8.02677 12.6813 8.10708C12.6811 8.10729 12.681 8.10746 12.6809 8.10768C12.6804 8.10837 12.6802 8.1091 12.6798 8.10983C12.3105 8.79471 11.9862 9.44766 11.7102 10.0619H6.43197V10.0619C6.35102 9.76928 6.30998 9.467 6.30998 9.15951ZM6.57471 4.58154C6.09943 4.32346 5.64831 4.28449 5.28445 4.32587C5.29467 4.29837 5.30507 4.2716 5.31577 4.24552C5.38409 4.07833 5.34061 3.88626 5.20693 3.76483L4.95011 3.53155C5.45117 3.19532 6.05127 3.30743 7.03572 3.87577C7.45243 4.11636 7.93515 4.24032 8.41609 4.24032C8.69505 4.24032 8.97348 4.1986 9.23796 4.11378C9.92275 3.89416 10.4698 3.39916 10.7785 2.71996C10.9939 2.24605 11.5642 1.72235 12.3074 1.69232C13.1457 1.65811 13.9773 2.26384 14.667 3.40307C14.5182 3.66441 14.4331 3.96433 14.4331 4.27929C14.4331 4.61101 14.5262 4.93199 14.6961 5.20914C14.5565 5.32472 14.4175 5.45956 14.278 5.61425C14.2732 5.6194 14.2684 5.62456 14.2638 5.62997C13.9552 5.97523 13.6443 6.41836 13.3202 6.96853C12.8988 6.27145 12.2875 5.71557 11.5688 5.35979C11.6484 5.07516 11.7979 4.64423 12.0514 4.25317C12.1805 4.05405 12.1237 3.78795 11.9246 3.65887C11.7254 3.5297 11.4594 3.58655 11.3303 3.78571C11.0406 4.23259 10.8631 4.71375 10.7616 5.05827C10.4171 4.96804 10.0578 4.9197 9.69038 4.9197C7.35257 4.9197 5.45065 6.82162 5.45065 9.15938C5.45065 9.46506 5.48365 9.76675 5.54767 10.0617H4.86473C4.8316 9.1373 4.78433 6.8343 5.05267 5.25537C5.27396 5.17425 5.69982 5.08431 6.16462 5.33675C6.2298 5.37212 6.30001 5.38892 6.36932 5.38892C6.52177 5.38892 6.66941 5.30758 6.74732 5.16419C6.86054 4.95566 6.78328 4.6948 6.57471 4.58154ZM3.4187 6.29045C3.50374 5.81598 3.60944 5.22555 3.74754 4.72062C3.88813 4.20659 4.00827 3.98616 4.07316 3.89605L4.41716 4.20852C3.90768 5.82991 3.96213 8.90161 4.00411 10.0618H3.64781C3.59805 8.88898 3.4728 7.81154 3.31278 6.85518C3.34488 6.70217 3.37951 6.50911 3.4187 6.29045ZM0.93618 3.42065L1.43651 2.97983C1.46916 3.08584 1.50801 3.20817 1.55656 3.34911C1.96567 4.53685 2.65111 6.94748 2.78758 10.0618H2.35402C2.16272 8.87269 1.53478 5.13493 0.93618 3.42065ZM21.1407 19.9556C21.1407 20.1865 20.9529 20.3742 20.722 20.3742H1.27808C1.04725 20.3742 0.859438 20.1865 0.859438 19.9556V18.2147C0.859438 17.9839 1.04725 17.7961 1.27808 17.7961H20.722C20.9528 17.7961 21.1406 17.9839 21.1406 18.2147V19.9556H21.1407ZM21.1407 16.5182C21.1407 16.7491 20.9529 16.9369 20.722 16.9369H1.27808C1.04725 16.9369 0.859438 16.749 0.859438 16.5182V14.7773C0.859438 14.5465 1.04725 14.3587 1.27808 14.3587H20.722C20.9528 14.3587 21.1406 14.5465 21.1406 14.7773V16.5182H21.1407ZM21.1407 13.0807C21.1407 13.3115 20.9529 13.4994 20.722 13.4994H1.27808C1.04725 13.4994 0.859438 13.3115 0.859438 13.0807V11.3398C0.859438 11.109 1.04725 10.9212 1.27808 10.9212H20.7202C20.7207 10.9212 20.7211 10.9213 20.7216 10.9213C20.7219 10.9213 20.7222 10.9212 20.7225 10.9212C20.9531 10.9215 21.1406 11.1092 21.1406 11.3398V13.0807H21.1407Z" fill="#888888"/>
<path d="M15.8717 8.33879L15.8761 8.34137C15.9437 8.38022 16.0174 8.39869 16.0901 8.39869C16.2388 8.39869 16.3834 8.32139 16.4629 8.18325C16.5812 7.9776 16.5105 7.71489 16.3048 7.59651L16.3003 7.59393C16.0946 7.4756 15.8319 7.54641 15.7136 7.75206C15.5952 7.95775 15.666 8.22042 15.8717 8.33879Z" fill="#888888"/>
<path d="M12.6664 3.56084C12.7253 3.56084 12.7852 3.54864 12.8424 3.52294L12.8584 3.51585C13.0759 3.42072 13.175 3.16737 13.0798 2.94995C12.9847 2.73249 12.7312 2.6334 12.514 2.72853L12.4899 2.73919C12.2735 2.83651 12.1769 3.09089 12.2742 3.30728C12.3458 3.46648 12.5024 3.56084 12.6664 3.56084Z" fill="#888888"/>
<path d="M2.62114 11.7803C2.38446 11.7803 2.19141 11.9733 2.19141 12.21C2.19141 12.4466 2.38446 12.6396 2.62114 12.6396C2.85781 12.6396 3.05082 12.4466 3.05082 12.21C3.05082 11.9733 2.85781 11.7803 2.62114 11.7803Z" fill="#888888"/>
<path d="M2.62114 15.2178C2.38446 15.2178 2.19141 15.4108 2.19141 15.6475C2.19141 15.8841 2.38446 16.0771 2.62114 16.0771C2.85781 16.0771 3.05082 15.8841 3.05082 15.6475C3.05082 15.4108 2.85781 15.2178 2.62114 15.2178Z" fill="#888888"/>
<path d="M2.62114 18.6553C2.38446 18.6553 2.19141 18.8483 2.19141 19.085C2.19141 19.3216 2.38446 19.5147 2.62114 19.5147C2.85781 19.5147 3.05082 19.3216 3.05082 19.085C3.05082 18.8483 2.85777 18.6553 2.62114 18.6553Z" fill="#888888"/>
<path d="M19.3789 11.7803C19.1422 11.7803 18.9492 11.9733 18.9492 12.21C18.9492 12.4466 19.1422 12.6396 19.3789 12.6396C19.6156 12.6396 19.8086 12.4466 19.8086 12.21C19.8086 11.9733 19.6156 11.7803 19.3789 11.7803Z" fill="#888888"/>
<path d="M19.3789 15.2178C19.1422 15.2178 18.9492 15.4108 18.9492 15.6475C18.9492 15.8841 19.1422 16.0771 19.3789 16.0771C19.6156 16.0771 19.8086 15.8841 19.8086 15.6475C19.8086 15.4108 19.6156 15.2178 19.3789 15.2178Z" fill="#888888"/>
<path d="M19.3789 18.6553C19.1422 18.6553 18.9492 18.8483 18.9492 19.085C18.9492 19.3216 19.1422 19.5147 19.3789 19.5147C19.6156 19.5147 19.8086 19.3216 19.8086 19.085C19.8086 18.8483 19.6156 18.6553 19.3789 18.6553Z" fill="#888888"/>
</g>
<defs>
<clipPath id="clip0_2335_10313">
<rect width="22" height="22" fill="white"/>
</clipPath>
</defs>
</svg>
