<svg xmlns="http://www.w3.org/2000/svg" width="40" height="40" viewBox="0 0 40 40" fill="none" class="mdl-js">
<path d="M15.3333 13.6818C15.3333 13.3053 15.6318 13 16 13H29.3333C29.7015 13 30 13.3053 30 13.6818C30 14.0584 29.7015 14.3636 29.3333 14.3636H16C15.6318 14.3636 15.3333 14.0584 15.3333 13.6818Z" fill="#BBBBBB"/>
<path d="M10 27.3182C10 26.9416 10.2985 26.6364 10.6667 26.6364H29.3333C29.7015 26.6364 30 26.9416 30 27.3182C30 27.6947 29.7015 28 29.3333 28H10.6667C10.2985 28 10 27.6947 10 27.3182Z" fill="#BBBBBB"/>
<path d="M19.3333 20.5C19.3333 20.1234 19.6318 19.8182 20 19.8182H29.3333C29.7015 19.8182 30 20.1234 30 20.5C30 20.8766 29.7015 21.1818 29.3333 21.1818H20C19.6318 21.1818 19.3333 20.8766 19.3333 20.5Z" fill="#BBBBBB"/>
</svg>
