<svg width="22" height="22" viewBox="0 0 22 22" fill="none" xmlns="http://www.w3.org/2000/svg">
<g clip-path="url(#clip0_2335_10335)">
<path d="M21.168 17.882C19.645 16.6087 15.1655 12.8527 13.1114 11.0206C14.2234 10.0014 15.7803 8.48555 17.2946 7.01052C19.0281 5.32178 20.6658 3.727 21.4079 3.10039C21.7843 2.78307 22.0001 2.31665 22.0001 1.82075C22.0001 1.20037 21.6774 0.650285 21.1367 0.349505C20.5986 0.0505306 19.9653 0.0652688 19.4421 0.39024C17.7528 1.43803 11.0001 6.28767 11.0001 7.33322C11.0001 7.64165 10.9875 8.00443 10.8776 8.41615C10.3727 7.55025 10.0834 6.75692 10.0834 6.41657C10.0834 5.76444 7.86742 3.64016 3.49671 0.102007C3.31542 -0.0452462 3.05048 -0.03184 2.88441 0.134233L0.134422 2.88422C-0.0316509 3.04982 -0.0455297 3.31433 0.102196 3.49652C3.64039 7.86723 5.76463 10.0832 6.41676 10.0832C6.80588 10.0832 7.78415 10.4596 8.78978 11.1081C6.75759 12.9145 2.6156 16.3909 0.833176 17.8811C0.303718 18.3238 0.000231774 18.975 0.000231774 19.6679C0.000231774 20.9538 1.04626 21.9998 2.33218 21.9998C3.02461 21.9998 3.67627 21.6959 4.11893 21.166C5.65055 19.335 9.23244 15.0673 11.0004 13.0882C12.8247 15.1314 16.6042 19.639 17.8827 21.1677C18.325 21.6968 18.9762 21.9998 19.6682 21.9998C20.9541 21.9998 22.0001 20.9538 22.0001 19.6679C22.0001 18.9759 21.6971 18.3247 21.168 17.882ZM11.9168 7.41383C12.3989 6.66098 17.1312 2.90256 19.9255 1.16909C20.1618 1.02364 20.4483 1.01556 20.6909 1.15027C20.9366 1.28725 21.0834 1.53788 21.0834 1.82075C21.0834 2.0459 20.9863 2.25671 20.8167 2.39992C20.0495 3.04758 18.4006 4.65353 16.655 6.35392C15.1163 7.85297 13.5354 9.39175 12.4313 10.4001C12.3624 10.3349 12.2914 10.2681 12.2409 10.2175C11.969 9.94566 11.7249 9.64918 11.4984 9.34784C11.8745 8.55885 11.9157 7.88704 11.9168 7.41383ZM3.4158 20.5778C3.14767 20.8992 2.75245 21.0831 2.33218 21.0831C1.55157 21.0831 0.916879 20.4485 0.916879 19.6678C0.916879 19.2471 1.10083 18.8523 1.42133 18.5847C3.25286 17.0528 7.57029 13.4289 9.55329 11.6556C9.78278 11.8388 10.008 12.0308 10.2178 12.2406C10.2623 12.2851 10.3228 12.3495 10.3788 12.4084C8.62178 14.3698 4.96859 18.7218 3.4158 20.5778ZM19.6682 21.0832C19.2479 21.0832 18.8536 20.8997 18.5859 20.5796C16.6411 18.254 11.996 12.7227 10.8658 11.5925C9.48458 10.2112 7.39391 9.17734 6.50811 9.17734C6.50364 9.17734 6.4987 9.17777 6.49423 9.17777C5.95442 8.96787 3.36604 6.05048 1.07483 3.24004L1.37518 2.93969L5.63443 7.19894C5.72394 7.28844 5.84124 7.33322 5.9585 7.33322C6.07576 7.33322 6.19302 7.28844 6.28257 7.19894C6.46162 7.01989 6.46162 6.72985 6.28257 6.55085L2.02332 2.2916L2.29187 2.02304L6.55112 6.28229C6.64063 6.3718 6.75793 6.41657 6.87519 6.41657C6.99245 6.41657 7.10971 6.3718 7.19926 6.28229C7.37831 6.10324 7.37831 5.81321 7.19926 5.6342L2.94001 1.37495L3.24036 1.0746C6.05076 3.36581 8.96772 5.95109 9.16687 6.41657C9.16687 7.37172 10.2044 9.47717 11.5928 10.8656C12.7229 11.9958 18.2542 16.6408 20.5799 18.5852C20.8999 18.8533 21.0835 19.2476 21.0835 19.6679C21.0835 20.4485 20.4488 21.0832 19.6682 21.0832Z" fill="#888888"/>
</g>
<defs>
<clipPath id="clip0_2335_10335">
<rect width="22" height="22" fill="white"/>
</clipPath>
</defs>
</svg>
