<svg xmlns="http://www.w3.org/2000/svg" width="60" height="60" viewBox="0 0 60 60" fill="none" class="mdl-js">
<path d="M39.6848 42.3047C39.1988 42.3047 38.8043 42.6984 38.8043 43.1836C38.8043 43.6688 39.1988 44.0625 39.6848 44.0625C40.1708 44.0625 40.5652 43.6688 40.5652 43.1836C40.5652 42.6984 40.1708 42.3047 39.6848 42.3047Z" fill="#D83A3A"/>
<path d="M41.8526 39.4626L37.6679 38.0704L36.1656 35.0709C37.519 33.6958 38.4587 31.8763 38.7755 29.9785L38.9629 28.8574H40.5652C42.0216 28.8574 43.2065 27.6746 43.2065 26.2207V20.6836C43.2065 13.4142 37.282 7.5 30 7.5C22.6992 7.5 16.7934 13.3972 16.7934 20.6836V26.2207C16.7934 27.3664 17.5296 28.3434 18.5543 28.7063V29.7363C18.5543 31.1902 19.7392 32.373 21.1956 32.373H21.9688C22.3505 33.2007 22.8445 33.9673 23.4457 34.6559C23.5703 34.799 23.7004 34.9377 23.8336 35.0726L22.3321 38.0704L18.1473 39.4627C13.2816 41.0823 9.74997 46.1957 9.74997 51.6211C9.74997 52.1065 10.1441 52.5 10.6304 52.5H49.3695C49.8557 52.5 50.25 52.1065 50.25 51.6211C50.25 46.1957 46.7185 41.0823 41.8526 39.4626ZM41.4456 26.2207C41.4456 26.7053 41.0507 27.0996 40.5652 27.0996H39.2215C39.4453 25.369 39.5944 23.5275 39.6544 21.7137C39.6561 21.6625 39.6575 21.6128 39.6591 21.5625H41.4456V26.2207ZM19.4348 27.0996C18.9493 27.0996 18.5543 26.7053 18.5543 26.2207V21.5625H20.3414C20.3443 21.6542 20.3474 21.7463 20.3508 21.839C20.3509 21.8422 20.3511 21.8452 20.3512 21.8484C20.3512 21.8487 20.3512 21.8489 20.3512 21.8492C20.4128 23.6133 20.56 25.4071 20.7787 27.0995L19.4348 27.0996ZM21.1956 30.6152C20.7101 30.6152 20.3152 30.221 20.3152 29.7363V28.8574H21.037L21.2243 29.9788C21.2601 30.192 21.304 30.4043 21.3548 30.6152H21.1956ZM20.3167 19.8047H18.5878C19.0337 13.9142 23.9582 9.25781 30 9.25781C36.0149 9.25781 40.961 13.9136 41.4121 19.8047H39.6833C39.62 14.9508 35.6604 11.0156 30.788 11.0156H29.2121C24.3398 11.0156 20.38 14.9508 20.3167 19.8047ZM29.212 12.7734H30.788C34.7331 12.7734 37.9262 15.9947 37.9239 19.9286C37.9239 20.2052 37.9217 20.446 37.917 20.6651C37.917 20.6679 37.9169 20.6708 37.9169 20.6738L36.8157 20.5167C33.824 20.0902 30.9992 18.6803 28.8617 16.5465C28.6965 16.3817 28.4726 16.2891 28.2391 16.2891C25.8746 16.2891 23.6112 17.3645 22.115 19.1814C22.4837 15.6025 25.5144 12.7734 29.212 12.7734ZM23.1801 30.6152C22.7394 29.1516 22.2351 24.845 22.1236 22.0852L23.3086 20.5079C24.3969 19.0598 26.09 18.1601 27.8912 18.0568C30.261 20.3082 33.3269 21.795 36.5667 22.2567L37.8629 22.4417C37.7762 24.2773 37.5992 26.1193 37.3455 27.8134C37.3454 27.8139 37.3453 27.8145 37.3453 27.8151C37.2646 28.3598 37.201 28.7103 37.0387 29.6893C36.5724 32.4812 34.4856 35.0058 31.7308 35.6934C30.5971 35.9759 29.4027 35.9759 28.2696 35.6934C26.5495 35.2641 24.9722 34.076 23.9544 32.373H25.7492C26.1127 33.396 27.0913 34.1309 28.2391 34.1309H30C31.4593 34.1309 32.6413 32.951 32.6413 31.4941C32.6413 30.0403 31.4564 28.8574 30 28.8574H28.2391C27.0657 28.8574 26.1016 29.614 25.7477 30.6152H23.1801ZM28.1651 37.4721C28.7689 37.5991 29.3846 37.6641 30 37.6641C30.4817 37.6641 30.9634 37.6238 31.4397 37.5458L29.884 39.1882L28.1651 37.4721ZM28.6736 40.4659L25.881 43.414C25.1122 41.945 24.4516 40.4161 23.9098 38.8509L24.9585 36.7572L28.6736 40.4659ZM34.8922 36.4594L36.0899 38.8508C35.5472 40.4186 34.8865 41.948 34.1185 43.4153L31.1296 40.4316L34.8922 36.4594ZM27.3587 31.4941C27.3587 31.0089 27.7529 30.6152 28.2391 30.6152H30C30.4854 30.6152 30.8804 31.0095 30.8804 31.4941C30.8804 31.9795 30.4861 32.373 30 32.373H28.2391C27.7536 32.373 27.3587 31.9788 27.3587 31.4941ZM11.5461 50.7422C11.895 46.3882 14.7977 42.4306 18.7042 41.1302L22.4103 39.8973C23.0893 41.7715 23.9304 43.5933 24.9163 45.3236C24.9179 45.3266 24.9195 45.3296 24.9212 45.3325C24.9212 45.3324 24.9212 45.3326 24.9212 45.3325C25.6415 46.5972 26.4523 47.8332 27.3312 49.0064L28.4143 50.7422H11.5461ZM30 49.9587L28.8059 48.0451C28.7925 48.0236 28.7783 48.0028 28.7631 47.9826C28.0502 47.0332 27.3851 46.0403 26.7793 45.024L29.9192 41.7093L33.2277 45.0121C32.6179 46.0357 31.9506 47.0328 31.237 47.9824C31.1938 48.0398 31.255 47.9494 30 49.9587ZM31.5856 50.7422L32.6687 49.0065C33.5515 47.8288 34.368 46.583 35.0955 45.3035C35.0999 45.2958 35.104 45.2879 35.1084 45.2801C35.109 45.2792 35.1095 45.2783 35.11 45.2773C36.0833 43.5635 36.9157 41.7576 37.5897 39.8973L41.2957 41.1302C45.2023 42.4306 48.105 46.3882 48.4539 50.7422H31.5856Z" fill="#D83A3A"/>
<path d="M45.8078 47.1854C45.2194 46.0097 44.3576 44.9652 43.3154 44.1648C42.93 43.8687 42.3772 43.9407 42.0808 44.3255C41.7842 44.7103 41.8564 45.2621 42.2417 45.5581C43.0741 46.1973 43.7624 47.0317 44.2325 47.9709C44.4502 48.4059 44.9794 48.581 45.4136 48.3644C45.8485 48.1475 46.025 47.6196 45.8078 47.1854Z" fill="#D83A3A"/>
</svg>
