<svg width="60" height="60" viewBox="0 0 60 60" fill="none" xmlns="http://www.w3.org/2000/svg">
<path d="M50.2444 25.5732C50.2252 25.394 50.1536 25.2185 50.042 25.0771L46.2044 20.2152V7.7454C46.2044 6.36965 45.0859 5.25049 43.7109 5.25049H16.2891C14.9141 5.25049 13.7955 6.36965 13.7955 7.7454V20.2152L9.95791 25.0771C9.82476 25.2457 9.74997 25.4614 9.74997 25.6763V53.7837C9.74997 54.3177 10.1826 54.7505 10.7162 54.7505H49.2837C49.8174 54.7505 50.25 54.3177 50.25 53.7837V25.6763C50.25 25.6415 50.2479 25.6071 50.2444 25.5732ZM15.7281 7.7454C15.7281 7.43593 15.9797 7.18408 16.2891 7.18408H43.711C44.0203 7.18408 44.272 7.43584 44.272 7.7454V19.581H15.7281V7.7454ZM34.9064 47.5614C33.486 47.5614 33.1878 46.3886 33.1878 45.4048C33.1878 43.4602 34.2599 41.6339 34.9064 41.6339C35.5528 41.6339 36.6251 43.4603 36.6251 45.4048C36.625 46.3886 36.3269 47.5614 34.9064 47.5614ZM35.8726 52.8169V49.3831C37.5316 48.9794 38.5576 47.5069 38.5576 45.4048C38.5576 44.1678 38.2296 42.8421 37.6578 41.7675C36.9485 40.4344 35.9713 39.7003 34.9064 39.7003C33.8415 39.7003 32.8644 40.4345 32.1549 41.7675C31.5832 42.8421 31.2551 44.1678 31.2551 45.4048C31.2551 47.5069 32.2811 48.9794 33.94 49.3831V52.8169H26.4868V49.7626C28.011 49.4007 29.4541 48.1283 29.4541 45.4051V41.0601C29.4541 40.5261 29.0215 40.0933 28.4879 40.0933C27.9542 40.0933 27.5216 40.5261 27.5216 41.0601V45.4051C27.5216 46.5698 27.1597 47.3596 26.4868 47.7195V42.4953C26.4868 41.9613 26.0542 41.5285 25.5206 41.5285C24.9869 41.5285 24.5543 41.9613 24.5543 42.4953V47.7195C23.8813 47.3596 23.5195 46.5698 23.5195 45.4051V41.0601C23.5195 40.5261 23.0869 40.0933 22.5533 40.0933C22.0196 40.0933 21.587 40.5261 21.587 41.0601V45.4051C21.587 48.1283 23.0301 49.4007 24.5543 49.7626V52.8169H20.0294C18.5471 50.7383 17.7663 48.2954 17.7663 45.722C17.7663 38.9724 23.2545 33.4812 30.0003 33.4812C36.746 33.4812 42.2343 38.9724 42.2343 45.722C42.2343 48.2954 41.4534 50.7383 39.9712 52.8169H35.8726ZM48.3174 52.8169H42.2682C43.5147 50.6708 44.1669 48.2508 44.1669 45.722C44.1669 37.9062 37.8117 31.5477 30.0004 31.5477C22.189 31.5477 15.8339 37.9063 15.8339 45.722C15.8339 48.2508 16.4859 50.6707 17.7325 52.8169H11.6825V26.6431H25.5091C26.0427 26.6431 26.4753 26.2103 26.4753 25.6763C26.4753 25.1423 26.0427 24.7095 25.5091 24.7095H12.7105L15.2324 21.5146H44.7676L47.2894 24.7095H34.1881C33.6545 24.7095 33.2219 25.1423 33.2219 25.6763C33.2219 26.2103 33.6545 26.6431 34.1881 26.6431H48.3174V52.8169Z" fill="#D83A3A"/>
<path d="M36.6241 9.77135H23.3758C21.4045 9.77135 19.8007 11.376 19.8007 13.3485V13.4348C19.8007 15.4073 21.4045 17.012 23.3758 17.012H36.624C38.5954 17.012 40.1992 15.4073 40.1992 13.4348V13.3485C40.1993 11.376 38.5955 9.77135 36.6241 9.77135ZM38.2667 13.4348C38.2667 14.3411 37.5299 15.0784 36.6241 15.0784H23.3758C22.4701 15.0784 21.7332 14.3411 21.7332 13.4348V13.3485C21.7332 12.4422 22.4701 11.7049 23.3758 11.7049H36.624C37.5298 11.7049 38.2667 12.4422 38.2667 13.3485L38.2667 13.4348Z" fill="#D83A3A"/>
<path d="M30.5372 24.8727C29.8065 24.3939 28.8331 25.0861 29.0698 25.9339C29.1806 26.3306 29.5403 26.622 29.9528 26.6417C30.3647 26.6615 30.7531 26.4091 30.9013 26.024C31.0616 25.6076 30.9088 25.1207 30.5372 24.8727Z" fill="#D83A3A"/>
</svg>
