<svg width="60" height="60" viewBox="0 0 60 60" fill="none" xmlns="http://www.w3.org/2000/svg">
<path d="M37.6759 8.39488C37.4937 8.26571 37.2661 8.21988 37.0492 8.26905C36.832 8.31821 36.6457 8.45737 36.5352 8.65237C36.5298 8.66195 36.5232 8.6707 36.5174 8.67945C36.2635 9.0461 35.7618 9.13527 35.399 8.87903C35.0408 8.6257 34.5473 8.7132 34.2967 9.07527L33.1432 10.7406C32.8925 11.1027 32.9795 11.6014 33.3373 11.8548C33.4759 11.9527 33.6342 11.9998 33.7908 11.9998C34.0402 11.9998 34.2859 11.8806 34.4397 11.6585L35.2168 10.5365C35.9465 10.7419 36.7392 10.5836 37.337 10.1077L38.5045 10.934C38.8627 11.1873 39.3558 11.0994 39.6069 10.7377C39.8575 10.3756 39.7705 9.87691 39.4123 9.62359L37.6759 8.39488Z" fill="#D83A3A"/>
<path d="M45.7562 17.8948L45.1171 19.0046C44.911 19.3628 44.9825 19.8563 45.2768 20.1069C45.3907 20.2038 45.5209 20.25 45.6497 20.25C45.8548 20.25 46.0569 20.1325 46.1833 19.9124L47.1323 18.265C47.3384 17.9067 47.2669 17.4133 46.9726 17.1626C46.6742 16.9086 46.6014 16.4069 46.8105 16.0437C46.8156 16.0351 46.8204 16.0264 46.8261 16.0186C46.9441 15.8483 46.998 15.6261 46.9743 15.4056C46.9509 15.185 46.8522 14.9863 46.7024 14.8589L45.2744 13.6432C44.9798 13.3925 44.574 13.4795 44.3679 13.8377C44.1614 14.1956 44.2333 14.6895 44.5276 14.9401L45.4877 15.7572C45.2917 16.4803 45.3938 17.2784 45.7562 17.8948Z" fill="#D83A3A"/>
<path d="M41.9153 34.6178C42.2888 34.6178 42.6356 34.7717 42.892 35.0514C43.1901 35.3759 43.6876 35.3907 44.0034 35.0839C44.3195 34.7771 44.3334 34.2652 44.0353 33.9403C43.487 33.3428 42.7142 32.9998 41.9153 32.9998C40.3076 32.9998 39 34.3456 39 36C39 37.6539 40.3076 38.9998 41.9153 38.9998C42.6942 38.9998 43.4264 38.6879 43.9767 38.1212C44.2839 37.8051 44.2839 37.2928 43.9767 36.9771C43.67 36.6611 43.1721 36.6611 42.8649 36.9771C42.6114 37.238 42.274 37.3817 41.9153 37.3817C41.1749 37.3817 40.5725 36.7618 40.5725 36C40.5725 35.2377 41.1749 34.6178 41.9153 34.6178V34.6178Z" fill="#D83A3A"/>
<path d="M48.6863 30.7733V24.7797C48.6863 22.7448 47.0082 21.0891 44.9457 21.0891H40.9205C41.156 19.0827 40.4919 17.3179 39.0911 16.3501C37.9044 15.5305 36.3669 15.3835 34.7614 15.9362C33.2441 16.4589 31.8326 17.5572 30.7881 19.0289C30.3255 19.6802 29.9573 20.3708 29.6902 21.0891H24.7522L35.3662 6.13388L50.0947 16.3084L47.8508 19.4705C47.6106 19.8092 47.694 20.2757 48.0369 20.5127C48.3802 20.7497 48.853 20.6674 49.0932 20.3287L51.5393 16.8821C51.9079 16.3641 51.7803 15.6466 51.2545 15.2826L35.9477 4.70855C35.6933 4.53239 35.3844 4.46457 35.0782 4.51757C34.7721 4.57097 34.5054 4.73818 34.3265 4.98957L30.8157 9.93671V6.95354C30.8157 6.32019 30.2935 5.80493 29.6515 5.80493H11.4589C10.817 5.80493 10.2947 6.32019 10.2947 6.95354V11.0502C10.2947 11.4638 10.6345 11.7986 11.0532 11.7986C11.4724 11.7986 11.8117 11.4638 11.8117 11.0502V7.30198H14.0093V21.0887H11.9907C11.931 21.0887 11.8714 21.0903 11.8117 21.093V14.0435C11.8117 13.6304 11.4724 13.2952 11.0532 13.2952C10.6345 13.2952 10.2947 13.6304 10.2947 14.0435V21.4906C9.08236 22.1017 8.25 23.3466 8.25 24.7797V47.3094C8.25 49.3443 9.92815 51 11.9907 51H17.654C18.0732 51 18.4125 50.6652 18.4125 50.2517C18.4125 49.8385 18.0732 49.5033 17.654 49.5033H11.9907C10.7645 49.5033 9.76697 48.5192 9.76697 47.3094V24.7797C9.76697 23.8209 10.3935 23.004 11.2634 22.7062C11.2828 22.7008 11.3021 22.6945 11.3207 22.6875C11.5324 22.6212 11.7576 22.5854 11.9911 22.5854H44.9457C46.1719 22.5854 47.1698 23.5699 47.1698 24.7797V30.6697H41.7395C38.7356 30.6697 36.2914 33.0807 36.2914 36.0448C36.2914 39.0084 38.7356 41.4195 41.7395 41.4195H47.1698V47.3094C47.1698 48.5192 46.1719 49.5033 44.9457 49.5033H39.15C38.7308 49.5033 38.3915 49.8385 38.3915 50.2517C38.3915 50.6652 38.7308 51 39.15 51H44.9457C47.0082 51 48.6867 49.3443 48.6867 47.3094V41.3158C50.4028 40.914 51.6831 39.3892 51.6831 37.5753V34.5142C51.6827 32.6999 50.4024 31.1752 48.6863 30.7733V30.7733ZM32.0305 19.8879C33.7604 17.4504 36.5375 16.4136 38.2212 17.5763C39.191 18.2463 39.6181 19.5609 39.3909 21.0887H31.3297C31.5221 20.6756 31.7559 20.2738 32.0305 19.8879ZM29.2987 12.0741L22.9006 21.0891H19.1631V7.30159H29.2987V12.0741ZM15.5263 7.30159H17.6461V21.0887H15.5263V7.30159ZM50.1658 37.5749C50.1658 38.8697 49.0984 39.9228 47.786 39.9228H41.7395C39.5719 39.9228 37.8084 38.1829 37.8084 36.0444C37.8084 33.9062 39.5719 32.1663 41.7395 32.1663H47.786C49.0984 32.1663 50.1658 33.2194 50.1658 34.5142V37.5749Z" fill="#D83A3A"/>
<path d="M28.4998 37.4998C23.5374 37.4998 19.5 41.5372 19.5 46.5C19.5 51.4623 23.5374 55.4998 28.4998 55.4998C33.4626 55.4998 37.5 51.4623 37.5 46.5C37.5 41.5372 33.4626 37.4998 28.4998 37.4998V37.4998ZM28.4998 54.0099C24.3588 54.0099 20.9899 50.641 20.9899 46.5C20.9899 42.3586 24.3588 38.9896 28.4998 38.9896C32.6412 38.9896 36.0101 42.3586 36.0101 46.5C36.0101 50.641 32.6412 54.0099 28.4998 54.0099Z" fill="#D83A3A"/>
<path d="M29.1797 45.7126H27.8203C27.4198 45.7126 27.0939 45.3907 27.0939 44.995C27.0939 44.5993 27.4198 44.2773 27.8203 44.2773H30.4216C30.8616 44.2773 31.2186 43.9247 31.2186 43.49C31.2186 43.0553 30.8616 42.7027 30.4216 42.7027H29.4433V42.0371C29.4433 41.6024 29.0863 41.2498 28.6463 41.2498C28.2063 41.2498 27.8494 41.6024 27.8494 42.0371V42.7027H27.8203C26.541 42.7027 25.5 43.7311 25.5 44.995C25.5 46.2588 26.541 47.2873 27.8203 47.2873H29.1797C29.5803 47.2873 29.9057 47.6088 29.9057 48.0045C29.9057 48.4003 29.5803 48.7222 29.1797 48.7222H26.5784C26.138 48.7222 25.7814 49.0748 25.7814 49.5095C25.7814 49.9442 26.138 50.2969 26.5784 50.2969H27.8494V50.9624C27.8494 51.3971 28.2063 51.7498 28.6463 51.7498C29.0867 51.7498 29.4433 51.3971 29.4433 50.9624V50.2821C30.5989 50.1521 31.5 49.1806 31.5 48.0045C31.4996 46.7407 30.459 45.7126 29.1797 45.7126Z" fill="#D83A3A"/>
</svg>
